<svg width="52" height="25" viewBox="0 0 52 25" fill="none" xmlns="http://www.w3.org/2000/svg">
<path fill-rule="evenodd" clip-rule="evenodd" d="M29.7058 24.0119C29.8108 24.0119 29.9008 23.9219 29.9008 23.8169C29.9008 23.6819 29.9008 23.5469 29.9008 23.4119C29.9008 23.3069 29.8108 23.2169 29.7058 23.2169C29.6158 23.2169 29.5108 23.2169 29.4208 23.2169H25.2808H25.0108H24.9958C24.8908 23.2169 24.8008 23.3069 24.8008 23.4119C24.8008 23.5469 24.8008 23.6819 24.8008 23.8169C24.8008 23.9219 24.8908 24.0119 24.9958 24.0119H29.7058ZM29.4058 23.0969V22.5869H25.2658V23.0969H29.4058ZM29.4058 22.4519C29.4208 22.4519 29.4358 22.4519 29.4508 22.4519C29.6908 22.4519 29.9008 22.2569 29.9008 22.0319C29.9008 18.6269 29.9008 15.2219 29.9008 11.802C29.9008 11.277 29.4808 10.287 29.4808 9.77695C29.4808 8.98195 29.4808 8.47195 29.4808 7.67695C29.4808 7.52695 29.3458 7.39195 29.1808 7.39195C29.1358 7.39195 29.1058 7.39195 29.0608 7.39195L25.6258 7.39195C25.5808 7.39195 25.5508 7.39195 25.5058 7.39195C25.3408 7.39195 25.2058 7.51195 25.2058 7.67695C25.2058 8.47195 25.2058 8.98195 25.2058 9.77695C25.2058 10.302 24.7858 11.292 24.7858 11.802C24.7858 15.2069 24.7858 18.6119 24.7858 22.0319C24.7858 22.2719 24.9808 22.4519 25.2358 22.4519C25.2508 22.4519 25.2658 22.4519 25.2808 22.4519H29.4058ZM29.0608 7.13695C28.9708 3.49196 28.5658 1.69196 27.5008 0.101963C27.4708 0.0419626 27.4108 0.0119629 27.3508 0.0119629C27.2908 0.0119629 27.2308 0.0419626 27.2008 0.101963C26.1508 1.69196 25.7458 3.49196 25.6408 7.13695L29.0608 7.13695Z" fill="white"/>
<path d="M0 0H8.42532C11.0177 0 13.058 0.696001 14.5463 2.088C15.9385 3.432 16.6346 5.22 16.6346 7.452C16.6346 9.492 16.0105 11.124 14.7623 12.348C13.8022 13.26 12.686 13.872 11.4138 14.184L18.7949 24.012H12.0259L5.54487 14.544V24.012H0V0ZM5.54487 4.32V10.908H6.80506C8.3173 10.908 9.42147 10.56 10.1176 9.864C10.7177 9.264 11.0177 8.484 11.0177 7.524C11.0177 6.468 10.6457 5.652 9.90155 5.076C9.22944 4.572 8.20928 4.32 6.84107 4.32H5.54487Z" fill="white"/>
<path d="M52 0V4.68H44.2228V9.324H51.4239V14.004H44.2228V24.012H38.6779V0H52Z" fill="white"/>
</svg>
