<svg width="47" height="10" viewBox="0 0 47 10" fill="none" xmlns="http://www.w3.org/2000/svg">
<path opacity="0.6" fill-rule="evenodd" clip-rule="evenodd" d="M47 0.38123C47 0.175952 46.8238 -2.04673e-06 46.6181 -2.03774e-06C46.3538 -2.02619e-06 46.0894 -2.01463e-06 45.825 -2.00307e-06C45.6194 -1.99409e-06 45.4431 0.175952 45.4431 0.38123C45.4431 0.557183 45.4431 0.76246 45.4431 0.938413L45.4431 9.03226L45.4431 9.56012L45.4431 9.58944C45.4431 9.79472 45.6194 9.97067 45.825 9.97067C46.0894 9.97067 46.3538 9.97067 46.6181 9.97067C46.8238 9.97067 47 9.79472 47 9.58944L47 0.38123ZM45.2081 0.96774L44.2094 0.96774L44.2094 9.06158L45.2081 9.06158L45.2081 0.96774ZM43.945 0.96774C43.945 0.938415 43.945 0.909088 43.945 0.879763C43.945 0.410555 43.5631 -1.9042e-06 43.1225 -1.88494e-06C36.4544 -1.59347e-06 29.7863 -1.302e-06 23.0888 -1.00924e-06C22.0606 -9.64301e-07 20.1219 0.821114 19.1231 0.821114C17.5663 0.821114 16.5675 0.821114 15.0106 0.821114C14.7169 0.821114 14.4525 1.08504 14.4525 1.40762C14.4525 1.4956 14.4525 1.55425 14.4525 1.64223L14.4525 8.35777C14.4525 8.44575 14.4525 8.5044 14.4525 8.59237C14.4525 8.91495 14.6875 9.17888 15.0106 9.17888C16.5675 9.17888 17.5663 9.17888 19.1231 9.17888C20.1513 9.17888 22.09 10 23.0888 10C29.7569 10 36.425 10 43.1225 10C43.5925 10 43.945 9.61877 43.945 9.12023C43.945 9.09091 43.945 9.06158 43.945 9.03226L43.945 0.96774ZM13.9531 1.64223C6.815 1.81818 3.29 2.60997 0.176249 4.69208C0.0587493 4.75073 -2.24325e-07 4.86803 -2.19198e-07 4.98534C-2.1407e-07 5.10264 0.0587493 5.21994 0.176249 5.27859C3.29 7.33138 6.815 8.12317 13.9531 8.32845L13.9531 1.64223Z" fill="white"/>
</svg>
