<svg width="31" height="10" viewBox="0 0 31 10" fill="none" xmlns="http://www.w3.org/2000/svg">
<path opacity="0.6" fill-rule="evenodd" clip-rule="evenodd" d="M31 5L31 0.409356C31 0.204678 30.8279 0.0292383 30.6272 0.0292383C30.3691 0.0292383 30.111 0.0292383 29.8529 0.0292383C29.6522 0.0292384 29.4801 0.204678 29.4801 0.409356C29.4801 0.584795 29.4801 0.789471 29.4801 0.96491L29.4801 9.03509C29.4801 9.21053 29.4801 9.4152 29.4801 9.59064C29.4801 9.79532 29.6522 9.97076 29.8529 9.97076C30.111 9.97076 30.3691 9.97076 30.6272 9.97076C30.8279 9.97076 31 9.79532 31 9.59064L31 5ZM29.2507 0.96491L27.3867 0.96491L27.3867 9.03509L29.2507 9.03509L29.2507 0.96491ZM27.1286 0.96491C27.1286 0.935671 27.1286 0.906432 27.1286 0.877192C27.1286 0.409356 26.7558 -1.16953e-06 26.3256 -1.15073e-06C19.8159 -8.66181e-07 19.2997 -8.43618e-07 12.79 -5.59069e-07C11.7863 -5.15196e-07 11.2988 0.818712 10.2951 0.818712C8.77521 0.818712 9.63552 0.818712 8.14431 0.818712C7.85754 0.818712 7.59944 1.08187 7.59944 1.40351C7.59944 1.49123 7.59944 1.54971 7.59944 1.63743L7.59944 8.36257C7.59944 8.45029 7.59944 8.50877 7.59944 8.59649C7.59944 8.91813 7.82886 9.18129 8.14431 9.18129C9.6642 9.18129 8.80389 9.18129 10.2951 9.18129C11.2988 9.18129 11.7863 10 12.79 10C19.2997 10 19.8159 10 26.3256 10C26.7845 10 27.1286 9.61988 27.1286 9.12281C27.1286 9.09357 27.1286 9.06433 27.1286 9.03509L27.1286 0.96491ZM7.08326 1.66667C5.9075 1.72515 3.41258 1.95906 2.0074 2.33918C0.80296 2.66082 -2.73516e-07 3.74269 -2.18557e-07 5C-1.63598e-07 6.25731 0.80296 7.33918 2.0074 7.66082C3.41258 8.04094 5.9075 8.27485 7.08326 8.33333L7.08326 1.66667Z" fill="white"/>
</svg>
