<svg width="64" height="10" viewBox="0 0 64 10" fill="none" xmlns="http://www.w3.org/2000/svg">
<path fill-rule="evenodd" clip-rule="evenodd" d="M64 0.381681C64 0.178119 63.8539 -1.83747e-06 63.6835 -1.83002e-06C63.4644 -1.82044e-06 63.2453 -1.81087e-06 63.0262 -1.80129e-06C62.8558 -1.79384e-06 62.7098 0.178119 62.7098 0.381681L62.7098 0.559797L62.7098 0.941476L62.7098 9.03308L62.7098 9.41476L62.7098 9.59287C62.7098 9.79643 62.8558 9.97455 63.0262 9.97455C63.2453 9.97455 63.4644 9.97455 63.6835 9.97455C63.8539 9.97455 64 9.79643 64 9.59287L64 0.381681ZM62.515 0.941476L61.6873 0.941476L61.6873 9.03308L62.515 9.03308L62.515 0.941476ZM61.4682 0.941476C61.4682 0.916031 61.4682 0.890585 61.4682 0.865139C61.4682 0.38168 61.1518 -1.71935e-06 60.7866 -1.70339e-06C55.2606 -1.46184e-06 31.9391 -4.4243e-07 26.4131 -2.00878e-07C25.561 -1.63635e-07 23.9544 0.839699 23.1267 0.839699C21.8364 0.839699 21.0087 0.839699 19.7185 0.839699C19.4751 0.839699 19.256 1.09415 19.256 1.42494C19.256 1.50127 19.256 1.57761 19.256 1.65395L19.256 8.3715C19.256 8.44783 19.256 8.52417 19.256 8.60051C19.256 8.9313 19.4507 9.18575 19.7185 9.18575C21.0087 9.18575 21.8364 9.18575 23.1267 9.18575C23.9787 9.18575 25.5854 10 26.4131 10C31.9391 10 55.2606 10 60.7866 10C61.1761 10 61.4682 9.61832 61.4682 9.13486C61.4682 9.10941 61.4682 9.08396 61.4682 9.05852L61.4682 0.941476ZM18.8421 1.6285C16.0669 1.67939 5.79384 1.93384 -2.19113e-07 4.98728C5.81818 8.04071 16.0669 8.26972 18.8421 8.34606L18.8421 1.6285Z" fill="white"/>
</svg>
