<svg width="30" height="10" viewBox="0 0 30 10" fill="none" xmlns="http://www.w3.org/2000/svg">
<path opacity="0.6" fill-rule="evenodd" clip-rule="evenodd" d="M29.0021 5.01466L29.0021 0.410556C29.0021 0.205276 28.8253 0.0293233 28.6189 0.0293233C28.3537 0.0293233 28.0884 0.0293233 27.8231 0.0293233C27.6168 0.0293233 27.44 0.205276 27.44 0.410556C27.44 0.586509 27.44 0.791787 27.44 0.967741L27.44 9.03226C27.44 9.20821 27.44 9.41349 27.44 9.58944C27.44 9.79472 27.6168 9.97067 27.8231 9.97067C28.0884 9.97067 28.3537 9.97067 28.6189 9.97067C28.8253 9.97067 29.0021 9.79472 29.0021 9.58944L29.0021 5.01466ZM27.2042 0.967741L26.3789 0.967741L26.3789 9.03226L27.2042 9.03226L27.2042 0.967741ZM26.1137 0.967741C26.1137 0.938415 26.1137 0.90909 26.1137 0.879764C26.1137 0.410556 25.7305 -1.12472e-06 25.2884 -1.10539e-06L9.57894 -4.18709e-07C9.37263 -4.09691e-07 9.19579 0.175953 9.19579 0.381231L9.19579 0.439882L9.19579 9.53079L9.19579 9.61877C9.19579 9.82405 9.37263 10 9.57895 10L25.2884 10C25.7305 10 26.1137 9.61877 26.1137 9.12023C26.1137 9.09091 26.1137 9.06158 26.1137 9.03226L26.1137 0.967741ZM8.72421 0.439882C4.18526 0.469208 -3.6533e-07 1.64223 -2.19198e-07 4.98534C-7.30659e-08 8.32845 4.18526 9.50147 8.72421 9.53079L8.72421 0.439882Z" fill="white"/>
</svg>
